<?xml version="1.0" encoding="UTF-8" standalone="no"?>
<svg
   viewBox="0 0 255.90768 216.06778"
   version="1.1"
   id="svg51"
   sodipodi:docname="cpdb-logo.svg"
   width="255.90768"
   height="216.06778"
   inkscape:version="1.1.2 (0a00cf5339, 2022-02-04)"
   xmlns:inkscape="http://www.inkscape.org/namespaces/inkscape"
   xmlns:sodipodi="http://sodipodi.sourceforge.net/DTD/sodipodi-0.dtd"
   xmlns:xlink="http://www.w3.org/1999/xlink"
   xmlns="http://www.w3.org/2000/svg"
   xmlns:svg="http://www.w3.org/2000/svg">
  <sodipodi:namedview
     id="namedview53"
     pagecolor="#ffffff"
     bordercolor="#666666"
     borderopacity="1.0"
     inkscape:pageshadow="2"
     inkscape:pageopacity="0.0"
     inkscape:pagecheckerboard="0"
     showgrid="false"
     fit-margin-top="10"
     fit-margin-left="10"
     fit-margin-right="0"
     fit-margin-bottom="0"
     inkscape:zoom="2.1108897"
     inkscape:cx="138.56717"
     inkscape:cy="59.690472"
     inkscape:window-width="1920"
     inkscape:window-height="1043"
     inkscape:window-x="1920"
     inkscape:window-y="0"
     inkscape:window-maximized="1"
     inkscape:current-layer="g49" />
  <defs
     id="defs25">
    <filter
       id="g"
       x="-0.064254858"
       y="-0.19277151"
       width="1.1285097"
       height="1.385543">
      <feGaussianBlur
         stdDeviation=".8925"
         id="feGaussianBlur2" />
    </filter>
    <linearGradient
       id="a">
      <stop
         stop-color="#fff"
         offset="0"
         id="stop5" />
      <stop
         stop-color="#fff"
         stop-opacity="0"
         offset="1"
         id="stop7" />
    </linearGradient>
    <linearGradient
       id="f"
       x1="288.41"
       x2="308.09"
       gradientUnits="userSpaceOnUse"
       spreadMethod="reflect">
      <stop
         stop-color="#c6c6c6"
         offset="0"
         id="stop10" />
      <stop
         stop-color="#e3e3e3"
         offset=".20485"
         id="stop12" />
      <stop
         stop-color="#a5a5a8"
         offset="1"
         id="stop14" />
    </linearGradient>
    <linearGradient
       id="e"
       x1="282.35999"
       x2="286.63"
       y1="518.56"
       y2="527.34003"
       gradientUnits="userSpaceOnUse">
      <stop
         stop-color="#e3e3e3"
         offset="0"
         id="stop17" />
      <stop
         stop-color="#a5a5a8"
         offset="1"
         id="stop19" />
    </linearGradient>
    <linearGradient
       id="d"
       x1="308.5"
       x2="327.78"
       y1="522.85999"
       y2="520.58002"
       gradientUnits="userSpaceOnUse"
       xlink:href="#a"
       spreadMethod="reflect" />
    <linearGradient
       id="c"
       x1="308.5"
       x2="327.78"
       y1="534.60999"
       y2="532.33002"
       gradientUnits="userSpaceOnUse"
       xlink:href="#a"
       spreadMethod="reflect" />
    <linearGradient
       id="b"
       x1="308.5"
       x2="327.78"
       y1="544.60999"
       y2="542.33002"
       gradientUnits="userSpaceOnUse"
       xlink:href="#a"
       spreadMethod="reflect" />
  </defs>
  <g
     transform="matrix(4.1992,0,0,4.1992,-1131.1819,-2134.4464)"
     id="g49">
    <path
       transform="matrix(1.1818,0,0,1.1818,-30.649,-65.984)"
       d="m 303.3,521.78 c 0,3.0684 -7.4623,5.5558 -16.668,5.5558 -9.2057,0 -16.668,-2.4874 -16.668,-5.5558 0,-3.0684 7.4623,-5.5558 16.668,-5.5558 9.2057,0 16.668,2.4874 16.668,5.5558 z"
       fill="#2e3436"
       filter="url(#g)"
       id="path27" />
    <path
       d="m 288.40625,517.5 v 30.09191 h 0.125 c -0.0806,0.24126 -0.125,0.47032 -0.125,0.71875 0,3.6263 8.80861,6.5625 19.6875,6.5625 10.87889,0 19.6875,-2.9362 19.6875,-6.5625 0,-0.24879 -0.0442,-0.47715 -0.125,-0.71875 h 0.125 V 517.5 Z"
       fill="url(#f)"
       id="path29"
       style="fill:url(#f)" />
    <path
       transform="matrix(1.1818,0,0,1.1818,-30.649,-99.394)"
       d="m 303.3,521.78 c 0,3.0684 -7.4623,5.5558 -16.668,5.5558 -9.2057,0 -16.668,-2.4874 -16.668,-5.5558 0,-3.0684 7.4623,-5.5558 16.668,-5.5558 9.2057,0 16.668,2.4874 16.668,5.5558 z"
       fill="url(#e)"
       id="path31"
       style="fill:url(#e)" />
    <path
       d="m 288.38,539.09 c 0.14735,3.584 8.9318,6.4688 19.719,6.4688 10.756,0 19.492,-2.8677 19.688,-6.4375 -3.4515,2.9359 -10.959,4.9688 -19.688,4.9688 -8.7461,0 -16.277,-2.0544 -19.719,-5 z"
       fill="#565656"
       id="path33" />
    <path
       d="m 288.38,517.34 c 0.14735,3.584 8.9318,6.4688 19.719,6.4688 10.756,0 19.492,-2.8677 19.688,-6.4375 -0.21572,0.18349 -0.44078,0.35509 -0.6875,0.53125 l -0.0312,0.0312 c -2.2921,2.7774 -9.9035,4.8125 -18.969,4.8125 -9.122,0 -16.786,-2.0707 -19.031,-4.875 l -0.0625,-0.0625 c -0.21872,-0.15969 -0.43159,-0.30323 -0.625,-0.46875 z"
       fill="url(#d)"
       id="path35"
       style="fill:url(#d)" />
    <g
       transform="translate(0,-0.52315)"
       id="g41">
      <path
         d="m 288.38,529.09 c 0.14735,3.584 8.9318,6.4688 19.719,6.4688 10.756,0 19.492,-2.8677 19.688,-6.4375 -3.4515,2.9359 -10.959,4.9688 -19.688,4.9688 -8.7461,0 -16.277,-2.0544 -19.719,-5 z"
         fill="#565656"
         id="path37" />
      <path
         d="m 288.38,529.09 c 0.14735,3.584 8.9318,6.4688 19.719,6.4688 10.756,0 19.492,-2.8677 19.688,-6.4375 l -0.15625,0.125 c -1.2422,3.2268 -9.5106,5.7188 -19.531,5.7188 -10.113,0 -18.468,-2.5112 -19.594,-5.7812 l -0.125,-0.0937 z"
         fill="url(#c)"
         id="path39"
         style="fill:url(#c)" />
    </g>
    <path
       d="m 288.38,539.09 c 0.14735,3.584 8.9318,6.4688 19.719,6.4688 10.756,0 19.492,-2.8677 19.688,-6.4375 l -0.15625,0.125 c -1.2422,3.2268 -9.5106,5.7188 -19.531,5.7188 -10.113,0 -18.468,-2.5112 -19.594,-5.7812 l -0.125,-0.0937 z"
       fill="url(#b)"
       id="path43"
       style="fill:url(#b)" />
    <path
       d="m 288.5,549.94 c 1.126,3.27 9.481,5.7812 19.594,5.7812 10.021,0 18.289,-2.492 19.531,-5.7188 -3.5163,2.8678 -10.929,4.8438 -19.531,4.8438 -8.6478,0 -16.1,-2.0137 -19.594,-4.9062 z"
       fill="#565656"
       id="path45" />
    <g
       aria-label="CPDB"
       transform="rotate(-90)"
       id="text47"
       style="font-weight:800;font-size:16.4016px;font-family:Lato;-inkscape-font-specification:'Lato Ultra-Bold';stroke-width:0.820079">
      <path
         d="m -546.73416,280.86464 q 0.20502,0 0.34444,0.14762 l 0.97589,1.0415 q -0.72167,0.91849 -1.79597,1.39413 -1.06611,0.47565 -2.54225,0.47565 -1.33673,0 -2.40284,-0.45104 -1.0661,-0.45925 -1.81237,-1.27113 -0.74628,-0.81188 -1.14811,-1.92719 -0.40184,-1.1153 -0.40184,-2.43563 0,-0.88569 0.18861,-1.68117 0.19682,-0.80368 0.56586,-1.47614 0.36904,-0.67247 0.88569,-1.21372 0.52485,-0.54125 1.18091,-0.91849 0.65607,-0.38544 1.42694,-0.58226 0.77908,-0.20502 1.65656,-0.20502 0.65607,0 1.23832,0.11482 0.59046,0.11481 1.09891,0.31983 0.50845,0.20502 0.93489,0.50025 0.43464,0.28702 0.77908,0.63146 l -0.82828,1.13171 q -0.0738,0.10661 -0.18862,0.18862 -0.11481,0.082 -0.31163,0.082 -0.19682,0 -0.40184,-0.13941 -0.19682,-0.13941 -0.49205,-0.31163 -0.28703,-0.17222 -0.72987,-0.31163 -0.43464,-0.13941 -1.10711,-0.13941 -0.74627,0 -1.36953,0.27062 -0.62326,0.27063 -1.07431,0.78728 -0.44284,0.50845 -0.68886,1.25472 -0.24603,0.74627 -0.24603,1.69757 0,0.95949 0.26243,1.71396 0.27062,0.74628 0.72987,1.26293 0.46744,0.51665 1.0825,0.78727 0.62327,0.26243 1.32853,0.26243 0.41824,0 0.75448,-0.041 0.34443,-0.041 0.63146,-0.13942 0.29523,-0.0984 0.54945,-0.25422 0.26243,-0.15582 0.52485,-0.39364 0.0902,-0.0738 0.18862,-0.12301 0.0984,-0.0492 0.21322,-0.0492 z"
         id="path3634" />
      <path
         d="m -540.00953,277.81394 q 1.15632,0 1.68937,-0.55765 0.54125,-0.55765 0.54125,-1.52535 0,-0.44284 -0.13941,-0.80368 -0.13121,-0.36903 -0.41004,-0.62326 -0.27063,-0.26242 -0.68887,-0.40184 -0.41824,-0.13941 -0.9923,-0.13941 h -1.55815 v 4.05119 z m 0,-5.92097 q 1.22192,0 2.10761,0.28703 0.89389,0.28702 1.46794,0.80367 0.57406,0.50845 0.84469,1.21372 0.27882,0.70527 0.27882,1.53355 0,0.87749 -0.28702,1.60736 -0.28703,0.72987 -0.86929,1.25472 -0.58226,0.52485 -1.46794,0.82008 -0.88569,0.28703 -2.07481,0.28703 h -1.55815 v 4.0922 h -2.46024 v -11.89936 z"
         id="path3636" />
      <path
         d="m -523.07489,277.83855 q 0,1.30392 -0.44284,2.40283 -0.43465,1.09071 -1.23833,1.87798 -0.79547,0.78728 -1.91898,1.23012 -1.12351,0.44285 -2.49305,0.44285 h -4.57604 v -11.89936 h 4.57604 q 1.36954,0 2.49305,0.44284 1.12351,0.44284 1.91898,1.23832 0.80368,0.78728 1.23833,1.87798 0.44284,1.09071 0.44284,2.38644 z m -2.52585,0 q 0,-0.93489 -0.24602,-1.68117 -0.24603,-0.74627 -0.70527,-1.26292 -0.45925,-0.51665 -1.12351,-0.79548 -0.65606,-0.27882 -1.49255,-0.27882 h -2.0994 v 8.04498 h 2.0994 q 0.83649,0 1.49255,-0.27063 0.66426,-0.27882 1.12351,-0.79547 0.45924,-0.52486 0.70527,-1.27113 0.24602,-0.74627 0.24602,-1.68936 z"
         id="path3638" />
      <path
         d="m -516.69467,281.90614 q 0.59045,0 0.96769,-0.13941 0.38544,-0.14761 0.61506,-0.38544 0.22962,-0.23782 0.31983,-0.54125 0.0902,-0.31163 0.0902,-0.63966 0,-0.36084 -0.10661,-0.64787 -0.10661,-0.28702 -0.34443,-0.48384 -0.23783,-0.20502 -0.62326,-0.31163 -0.37724,-0.10661 -0.9349,-0.10661 h -2.0912 v 3.25571 z m -2.10761,-8.14339 v 3.21471 h 1.61556 q 0.51665,0 0.91849,-0.082 0.40184,-0.0902 0.67246,-0.27883 0.27063,-0.18862 0.41004,-0.49205 0.14762,-0.31163 0.14762,-0.74627 0,-0.44285 -0.12301,-0.75448 -0.11482,-0.31163 -0.36084,-0.50025 -0.24602,-0.18861 -0.62326,-0.27062 -0.37724,-0.0902 -0.89389,-0.0902 z m 1.76317,-1.86978 q 1.19732,0 2.042,0.22962 0.85289,0.22142 1.38594,0.63966 0.54125,0.41004 0.78727,1.0005 0.24603,0.59046 0.24603,1.32033 0,0.41004 -0.12301,0.78728 -0.11482,0.37723 -0.36904,0.71346 -0.24602,0.32804 -0.63966,0.59866 -0.39364,0.27063 -0.93489,0.45925 1.21371,0.28703 1.79597,0.93489 0.58226,0.64786 0.58226,1.68116 0,0.75448 -0.29523,1.40234 -0.28703,0.64786 -0.84468,1.12351 -0.55766,0.47565 -1.37774,0.74627 -0.81188,0.26243 -1.86978,0.26243 h -4.60885 v -11.89936 z"
         id="path3640" />
    </g>
  </g>
</svg>
